<svg width="84" height="18" viewBox="0 0 84 18" fill="none" xmlns="http://www.w3.org/2000/svg">
<g id="Frame 7540800">
<g id="Group 3">
<path id="Vector" d="M57.8751 8.99623C57.8751 11.3792 57.5563 13.0108 56.898 13.9874C56.3529 14.7963 55.5398 15.1755 54.3363 15.1755H52.7609C52.7286 15.1755 52.7009 15.1456 52.7009 15.1089V2.88362C52.7009 2.84685 52.7286 2.81697 52.7609 2.81697H54.3363C55.5398 2.81697 56.3529 3.19384 56.898 4.00503C57.554 4.98167 57.8751 6.61553 57.8751 8.99853M59.1086 1.97132C58.0761 0.645387 56.5538 0.00195312 54.4495 0.00195312H50.6866C50.19 0.00195312 49.7881 0.422482 49.7881 0.939527V17.0529C49.7881 17.57 50.1923 17.9905 50.6866 17.9905H54.4495C56.5538 17.9905 58.0761 17.3471 59.1086 16.0212C60.2404 14.5665 60.7902 12.2686 60.7902 8.99623C60.7902 5.72392 60.2404 3.42364 59.1086 1.97132Z" fill="#1B1919"/>
<path id="Vector_2" d="M5.11644 7.37582H2.99595C2.95206 7.37582 2.91511 7.33675 2.91511 7.28849V2.90395C2.91511 2.8557 2.95206 2.81663 2.99595 2.81663H5.11644C6.48622 2.81663 7.18151 3.57956 7.18151 5.08473C7.18151 6.58991 6.48622 7.37582 5.11644 7.37582ZM2.91511 10.2782C2.91511 10.2299 2.95206 10.1908 2.99595 10.1908H5.36593C6.89278 10.1908 7.63425 11.0112 7.63425 12.6956C7.63425 14.38 6.89278 15.1774 5.36593 15.1774H2.99595C2.95206 15.1774 2.91511 15.1384 2.91511 15.0901V10.2805V10.2782ZM8.4635 8.62592C8.43116 8.60523 8.42656 8.57076 8.42425 8.55698C8.42425 8.54319 8.42425 8.50872 8.45428 8.48574C9.48219 7.64238 10.0966 6.30955 10.0966 4.91928C10.0966 3.28082 9.6231 2.02613 8.68758 1.18966C7.80751 0.403754 6.53011 0.00390625 4.89007 0.00390625H0.900844C0.404212 0.00390625 0 0.424436 0 0.941481V17.0549C0 17.5719 0.404212 17.9925 0.900844 17.9925H5.13956C6.83273 17.9925 8.16092 17.5582 9.08719 16.7033C10.0574 15.8071 10.5494 14.4927 10.5494 12.7921C10.5494 10.2621 9.08949 9.03725 8.4635 8.62821" fill="#1B1919"/>
<path id="Vector_3" d="M17.4468 8.0173H15.1092L15.1023 2.81697H17.4677C18.9137 2.81697 19.6459 3.68331 19.6459 5.39301C19.6459 7.1027 18.8443 8.0173 17.4445 8.0173M22.6026 17.2391L22.5587 16.7542V16.7611L22.2908 12.9419C22.1776 11.285 21.6347 10.0533 20.72 9.38C21.2744 8.96866 22.5656 7.74614 22.5656 5.29879C22.5656 1.93225 20.7824 0.00195312 17.6755 0.00195312H13.0973C12.6399 0.00195312 12.2565 0.358139 12.2057 0.822331C12.201 0.852205 12.1987 0.882078 12.1987 0.911952V17.2368C12.1987 17.6527 12.5383 17.9905 12.9564 17.9905H14.3585C14.7766 17.9905 15.1162 17.6527 15.1162 17.2368V16.7634L15.1092 10.83H17.2482C18.5579 10.83 19.2047 11.1563 19.3364 13.0154L19.639 17.2391C19.6875 17.655 20.0663 17.9928 20.4821 17.9928H21.9188C22.3369 17.9928 22.6442 17.655 22.6072 17.2391" fill="#1B1919"/>
<path id="Vector_4" d="M28.3543 11.1931L29.5693 6.37884C29.6663 5.99508 29.7541 5.6251 29.8373 5.25743C29.9158 5.60672 30.0059 5.97669 30.1075 6.37884L31.3225 11.1931H28.3543ZM35.8615 17.2414L35.5659 16.0993L35.4619 15.704L31.5373 0.739604L31.5212 0.67526C31.4103 0.280008 31.0546 0.00195312 30.6573 0.00195312H29.1304C28.7331 0.00195312 28.3774 0.282306 28.2642 0.682154L24.1849 16.0028L24.1595 16.097L23.8638 17.2391C23.7576 17.655 24.007 17.9928 24.4251 17.9928H25.8712C26.2892 17.9928 26.7143 17.655 26.8228 17.2391L26.9476 16.7542L27.0145 16.4853L27.6359 14.0035H32.0432L32.727 16.7335L32.7316 16.7519L32.8563 17.2368C32.9626 17.6527 33.3899 17.9905 33.808 17.9905H35.3025C35.7206 17.9905 35.9724 17.6527 35.8638 17.2368" fill="#1B1919"/>
<path id="Vector_5" d="M47.7827 0.755689C47.7827 0.339755 47.4431 0.00195312 47.025 0.00195312H45.5998C45.1817 0.00195312 44.8445 0.339755 44.8445 0.755689V8.59409C44.8445 9.68563 44.8537 10.5014 44.8745 11.2391C44.5881 10.5014 44.2554 9.68792 43.8674 8.76414L40.4048 0.546573L40.3586 0.450059H40.354C40.1946 0.181195 39.9151 0.013443 39.5825 0.00195312H37.8778C37.4597 0.00195312 37.1201 0.339755 37.1201 0.755689V16.7565V17.2414C37.1201 17.6573 37.4597 17.9928 37.8755 17.9928H38.2889C38.2889 17.9928 38.2912 17.9928 38.2935 17.9928H38.8618C38.8618 17.9928 38.8641 17.9928 38.8664 17.9928H39.2799C39.698 17.9928 40.0352 17.655 40.0352 17.2414V16.7703V16.7657V9.40527C40.0352 8.3528 40.026 7.48187 40.0052 6.70055C40.2986 7.45429 40.6358 8.28846 41.0354 9.23752L44.5003 17.4597C44.6458 17.7814 44.9646 17.9928 45.3111 17.9974H46.8818C46.8818 17.9974 46.8888 17.9974 46.8911 17.9974H47.025C47.4431 17.9974 47.7827 17.6596 47.7827 17.246V1.23826V0.755689Z" fill="#1B1919"/>
<path id="Vector_6" d="M83.9998 0.755689C83.9998 0.339755 83.6603 0.00195312 83.2422 0.00195312H81.817C81.3989 0.00195312 81.0593 0.339755 81.0593 0.755689V1.24056V8.59639C81.0593 9.68792 81.0686 10.5037 81.0894 11.2414C80.8029 10.5037 80.4703 9.69022 80.0822 8.76644L76.6197 0.548872L76.5735 0.452356H76.5688C76.4095 0.183493 76.1299 0.0157406 75.7973 0.00425072H74.0926C73.6745 0.00425072 73.335 0.342054 73.335 0.757988V16.7588V17.2437C73.335 17.6596 73.6745 17.9951 74.0903 17.9951H74.5038C74.5038 17.9951 74.5061 17.9951 74.5084 17.9951H75.0766C75.0766 17.9951 75.0789 17.9951 75.0812 17.9951H75.4947C75.9128 17.9951 76.2501 17.6573 76.2501 17.2437V16.7726V16.768V9.40757C76.2501 8.3551 76.2408 7.48417 76.22 6.70285C76.5134 7.45659 76.8506 8.29076 77.2503 9.23982L80.7151 17.462C80.8606 17.7837 81.1794 17.9951 81.5259 17.9997H83.0967C83.0967 17.9997 83.1036 17.9997 83.1059 17.9997H83.2398C83.6579 17.9997 83.9975 17.6619 83.9975 17.2483V1.23826V0.755689H83.9998Z" fill="#1B1919"/>
<path id="Vector_7" d="M71.693 1.23861V0.753736C71.693 0.337802 71.3534 0 70.9353 0H70.4479H63.331C62.8344 0 62.4302 0.420529 62.4302 0.937574V17.051C62.4302 17.5313 62.7767 17.9334 63.2294 17.9817C63.2571 17.9863 63.2825 17.9886 63.3103 17.9886H70.933C71.3511 17.9886 71.6906 17.6508 71.6906 17.2348V16.75V16.4076V15.9227C71.6906 15.5067 71.3511 15.1689 70.933 15.1689H65.4146C65.3776 15.1689 65.3453 15.1345 65.3453 15.0931V10.2352C65.3453 10.1938 65.3753 10.1594 65.4146 10.1594H70.0621C70.7089 10.1594 71.2356 9.60784 71.2356 8.92994V8.57375C71.2356 7.89585 70.7089 7.34433 70.0621 7.34433H65.4146C65.3776 7.34433 65.3453 7.30986 65.3453 7.2685V2.88396C65.3453 2.8426 65.3753 2.80813 65.4146 2.80813H70.933C71.3511 2.80813 71.6906 2.47032 71.6906 2.05669V1.57182V1.22942L71.693 1.23861Z" fill="#1B1919"/>
</g>
</g>
</svg>
