<svg xmlns="http://www.w3.org/2000/svg" xmlns:xlink="http://www.w3.org/1999/xlink" viewBox="0 0 106 28"><path d="M 61.909 9.332 L 61.909 21.634 L 58.273 21.634 L 58.273 20.679 C 57.623 21.715 56.044 21.958 54.687 21.958 C 53.33 21.958 52.172 21.509 51.375 20.613 C 50.578 19.716 50.18 18.488 50.18 16.927 L 50.18 9.332 L 53.816 9.332 L 53.816 16.056 C 53.816 16.869 54.002 17.5 54.376 17.948 C 54.749 18.397 55.285 18.621 55.982 18.621 C 56.679 18.621 57.236 18.376 57.651 17.886 C 58.066 17.396 58.273 16.712 58.273 15.832 L 58.273 9.332 Z" fill="rgb(43,47,51)"></path><path d="M 70.745 12.511 C 68.832 12.511 67.533 14.136 67.533 16.628 L 67.533 21.634 L 63.922 21.634 L 63.922 9.332 L 67.508 9.332 L 67.508 10.814 C 67.676 10.278 68.817 9.266 70.561 9.266 L 71.667 9.266 L 71.667 12.511 Z" fill="rgb(43,47,51)"></path><path d="M 77.486 6.58 C 77.378 6.838 77.228 7.062 77.037 7.253 C 76.847 7.444 76.622 7.597 76.365 7.713 C 76.108 7.83 75.83 7.888 75.531 7.888 C 75.232 7.888 74.954 7.83 74.697 7.713 C 74.439 7.597 74.215 7.444 74.024 7.253 C 73.833 7.062 73.684 6.838 73.576 6.58 C 73.468 6.323 73.414 6.053 73.414 5.771 C 73.414 5.489 73.468 5.219 73.576 4.962 C 73.684 4.704 73.833 4.48 74.024 4.289 C 74.215 4.098 74.439 3.945 74.697 3.829 C 74.954 3.712 75.232 3.654 75.531 3.654 C 75.83 3.654 76.108 3.712 76.365 3.829 C 76.622 3.945 76.847 4.098 77.037 4.289 C 77.228 4.48 77.378 4.704 77.486 4.962 C 77.594 5.219 77.647 5.489 77.647 5.771 C 77.647 6.053 77.594 6.323 77.486 6.58 Z M 73.713 9.332 L 77.349 9.332 L 77.349 21.634 L 73.713 21.634 Z" fill="rgb(43,47,51)"></path><path d="M 79.367 21.634 L 79.367 9.332 L 83.003 9.332 L 83.003 10.486 C 83.385 9.888 84.146 9.008 86.639 9.008 C 88.05 9.008 89.158 9.457 89.963 10.353 C 90.769 11.249 91.171 12.478 91.171 14.039 L 91.171 21.634 L 87.535 21.634 L 87.535 15.093 C 87.535 14.279 87.344 13.653 86.963 13.213 C 86.581 12.773 86.033 12.553 85.319 12.553 C 84.605 12.553 84.061 12.798 83.638 13.287 C 83.215 13.777 83.003 14.454 83.003 15.317 L 83.003 21.634 Z" fill="rgb(43,47,51)"></path><path d="M 100.825 21.024 C 100.144 21.348 99.397 21.509 98.584 21.509 C 97.77 21.509 96.981 21.352 96.268 21.036 C 95.554 20.721 94.939 20.289 94.425 19.741 C 93.91 19.194 93.508 18.542 93.217 17.787 C 92.927 17.031 92.781 16.213 92.781 15.334 C 92.781 14.454 92.927 13.603 93.217 12.831 C 93.508 12.059 93.914 11.391 94.437 10.826 C 94.96 10.262 95.575 9.818 96.28 9.494 C 96.986 9.17 97.754 9.008 98.584 9.008 C 99.414 9.008 100.173 9.178 100.862 9.519 C 101.551 9.859 102.07 10.328 102.419 10.926 L 102.419 9.332 L 106.005 9.332 L 106.005 20.837 C 106.005 21.8 105.855 22.68 105.556 23.477 C 105.258 24.274 104.818 24.959 104.236 25.531 C 103.655 26.104 102.946 26.548 102.107 26.864 C 101.269 27.179 100.31 27.337 99.231 27.337 C 97.77 27.337 96.504 27.046 95.433 26.465 C 94.363 25.884 93.586 25.087 93.105 24.074 L 95.994 22.356 C 96.326 22.97 96.774 23.444 97.338 23.776 C 97.903 24.108 98.534 24.274 99.231 24.274 C 100.227 24.274 101.007 23.975 101.572 23.377 C 102.136 22.779 102.419 21.933 102.419 20.837 L 102.419 19.692 C 102.037 20.256 101.505 20.7 100.825 21.024 Z M 101.891 14.113 C 101.734 13.732 101.514 13.4 101.232 13.117 C 100.949 12.835 100.621 12.615 100.248 12.457 C 99.874 12.3 99.48 12.221 99.065 12.221 C 98.65 12.221 98.256 12.3 97.882 12.457 C 97.509 12.615 97.185 12.835 96.911 13.117 C 96.637 13.4 96.421 13.732 96.263 14.113 C 96.106 14.495 96.027 14.902 96.027 15.334 C 96.027 15.765 96.106 16.172 96.263 16.554 C 96.421 16.936 96.637 17.268 96.911 17.55 C 97.185 17.832 97.509 18.052 97.882 18.21 C 98.256 18.368 98.65 18.446 99.065 18.446 C 99.48 18.446 99.874 18.368 100.248 18.21 C 100.621 18.052 100.949 17.832 101.232 17.55 C 101.514 17.268 101.734 16.936 101.891 16.554 C 102.049 16.172 102.128 15.765 102.128 15.334 C 102.128 14.902 102.049 14.495 101.891 14.113 Z" fill="rgb(43,47,51)"></path><path d="M 9.229 9.407 L 9.229 12.395 L 6.042 12.395 L 6.042 21.709 L 2.431 21.709 L 2.431 12.395 L 0.688 12.395 L 0.688 9.407 L 2.431 9.407 L 2.431 7.614 C 2.431 5.954 2.883 4.671 3.788 3.766 C 4.693 2.862 5.925 2.409 7.486 2.409 L 9.503 2.409 L 9.503 5.572 L 8.109 5.572 C 7.527 5.572 7.038 5.73 6.639 6.045 C 6.241 6.36 6.042 6.892 6.042 7.639 L 6.042 9.407 Z" fill="rgb(43,47,51)"></path><path d="M 20.038 21.161 C 19.066 21.742 17.908 22.032 16.564 22.032 C 15.601 22.032 14.721 21.875 13.924 21.559 C 13.127 21.244 12.442 20.8 11.869 20.227 C 11.297 19.654 10.848 18.969 10.525 18.172 C 10.201 17.376 10.039 16.504 10.039 15.558 C 10.039 14.611 10.201 13.769 10.525 12.98 C 10.848 12.192 11.297 11.507 11.869 10.926 C 12.442 10.345 13.115 9.892 13.886 9.569 C 14.659 9.245 15.501 9.083 16.414 9.083 C 17.327 9.083 18.195 9.245 18.967 9.569 C 19.739 9.892 20.399 10.345 20.947 10.926 C 21.494 11.507 21.922 12.2 22.229 13.005 C 22.536 13.81 22.69 14.694 22.69 15.657 C 22.69 15.873 22.686 16.056 22.677 16.205 C 22.669 16.355 22.656 16.471 22.64 16.554 L 13.6 16.554 C 13.633 16.919 13.733 17.251 13.899 17.55 C 14.065 17.849 14.285 18.11 14.559 18.334 C 14.833 18.558 15.14 18.733 15.48 18.857 C 15.821 18.982 16.182 19.044 16.564 19.044 C 17.244 19.044 17.784 18.911 18.182 18.646 C 18.581 18.38 18.921 18.015 19.203 17.55 L 22.266 18.77 C 21.752 19.783 21.009 20.58 20.038 21.161 Z M 18.257 12.557 C 17.759 12.134 17.136 11.922 16.389 11.922 C 16.024 11.922 15.684 11.984 15.368 12.109 C 15.053 12.233 14.771 12.403 14.522 12.619 C 14.272 12.835 14.069 13.076 13.911 13.341 C 13.754 13.607 13.658 13.889 13.625 14.188 L 19.129 14.188 C 19.045 13.524 18.755 12.98 18.257 12.557 Z" fill="rgb(43,47,51)"></path><path d="M 37.678 21.709 L 34.116 21.709 L 34.116 20.065 C 33.685 20.696 33.116 21.177 32.41 21.509 C 31.705 21.841 30.945 22.008 30.132 22.008 C 29.318 22.008 28.534 21.841 27.828 21.509 C 27.123 21.177 26.509 20.725 25.986 20.152 C 25.463 19.579 25.052 18.899 24.753 18.11 C 24.454 17.322 24.305 16.471 24.305 15.558 C 24.305 14.645 24.454 13.798 24.753 13.018 C 25.052 12.237 25.463 11.557 25.986 10.976 C 26.509 10.395 27.123 9.938 27.828 9.606 C 28.534 9.274 29.302 9.108 30.132 9.108 C 30.962 9.108 31.705 9.266 32.41 9.581 C 33.116 9.896 33.685 10.37 34.116 11.001 L 34.116 9.407 L 37.678 9.407 Z M 27.957 16.803 C 28.123 17.185 28.347 17.521 28.629 17.811 C 28.912 18.102 29.244 18.33 29.626 18.496 C 30.007 18.662 30.422 18.745 30.871 18.745 C 31.319 18.745 31.734 18.662 32.116 18.496 C 32.498 18.33 32.83 18.102 33.112 17.811 C 33.394 17.521 33.618 17.185 33.784 16.803 C 33.95 16.421 34.033 16.006 34.033 15.558 C 34.033 15.11 33.95 14.694 33.784 14.313 C 33.618 13.931 33.394 13.595 33.112 13.304 C 32.83 13.014 32.498 12.785 32.116 12.619 C 31.734 12.453 31.319 12.37 30.871 12.37 C 30.422 12.37 30.007 12.453 29.626 12.619 C 29.244 12.785 28.912 13.014 28.629 13.304 C 28.347 13.595 28.123 13.931 27.957 14.313 C 27.791 14.694 27.708 15.11 27.708 15.558 C 27.708 16.006 27.791 16.421 27.957 16.803 Z" fill="rgb(43,47,51)"></path><path d="M 45.049 9.407 L 48.162 9.407 L 48.162 12.395 L 45.049 12.395 L 45.049 16.902 C 45.049 17.567 45.195 18.04 45.485 18.322 C 45.776 18.604 46.22 18.745 46.818 18.745 L 48.162 18.745 L 48.162 22.008 L 45.622 22.008 C 44.327 22.008 43.306 21.63 42.559 20.875 C 41.812 20.119 41.438 19.052 41.438 17.674 L 41.438 12.395 L 39.695 12.395 L 39.695 9.407 L 41.438 9.407 L 41.438 5.796 L 45.049 5.796 Z" fill="rgb(43,47,51)"></path><path d="M 100.118 0.5 L 100.078 0.5 L 100.078 0.539 L 100.118 0.539 Z" fill="rgb(43,47,51)"></path></svg>