<?xml version="1.0" encoding="UTF-8"?>
<svg id="_레이어_1" data-name="레이어 1" xmlns="http://www.w3.org/2000/svg" viewBox="0 0 117.26 23.68">
  <defs>
    <style>
      .cls-1 {
        fill: #1d2087;
      }
    </style>
  </defs>
  <path class="cls-1" d="M45.34,23.68c-6.53,0-11.84-5.31-11.84-11.84S38.81,0,45.34,0s11.84,5.31,11.84,11.84-5.31,11.84-11.84,11.84M45.34,6.81c-2.77,0-5.03,2.26-5.03,5.03s2.26,5.03,5.03,5.03,5.03-2.26,5.03-5.03-2.26-5.03-5.03-5.03"/>
  <polygon class="cls-1" points="75.07 22.26 90.67 1.42 82.17 1.42 73.36 13.18 64.56 1.42 56.05 1.42 71.65 22.26 75.07 22.26"/>
  <polygon class="cls-1" points="19.02 22.26 34.62 1.42 26.12 1.42 17.31 13.18 8.51 1.42 0 1.42 15.6 22.26 19.02 22.26"/>
  <polygon class="cls-1" points="91.03 22.3 99.89 10.47 108.75 22.3 117.26 22.3 101.6 1.39 98.19 1.39 82.53 22.3 91.03 22.3"/>
</svg>