<svg width="640" height="640" viewBox="0 0 640 640" fill="none" xmlns="http://www.w3.org/2000/svg">
  <rect width="640" height="640" fill="#EEEDE8"/>
  <g fill="#D9D8D2" stroke="#C9C8C1" stroke-width="2">
    <path d="M0 0H154L137 112L0 139V0Z"/>
    <path d="M181 0H355L341 87L168 119L181 0Z"/>
    <path d="M386 0H640V101L375 80L386 0Z"/>
    <path d="M0 177L128 151L110 280L0 291V177Z"/>
    <path d="M163 143L334 111L317 252L143 273L163 143Z"/>
    <path d="M370 111L640 132V251L352 247L370 111Z"/>
    <path d="M0 327L103 316L83 473L0 459V327Z"/>
    <path d="M137 308L310 287L290 452L117 474L137 308Z"/>
    <path d="M347 283L640 289V425L330 447L347 283Z"/>
    <path d="M0 498L80 510L64 640H0V498Z"/>
    <path d="M115 508L285 486L267 640H95L115 508Z"/>
    <path d="M324 480L640 456V640H304L324 480Z"/>
  </g>
  <g stroke="#FFFFFF" stroke-linecap="square">
    <path d="M-24 320L666 270" stroke-width="32"/>
    <path d="M126 -20L82 665" stroke-width="26"/>
    <path d="M362 -24L292 665" stroke-width="22"/>
    <path d="M-18 489L662 434" stroke-width="18"/>
    <path d="M156 130L655 115" stroke-width="14"/>
  </g>
  <g fill="#797870" font-family="Arial, 'Noto Sans KR', sans-serif" font-size="16">
    <text x="410" y="296" transform="rotate(-4 410 296)">연무장길</text>
    <text x="107" y="222" transform="rotate(-86 107 222)">성수이로</text>
    <text x="333" y="564" transform="rotate(-84 333 564)">연무장19길</text>
    <text x="31" y="526" transform="rotate(-4 31 526)">성수동2가</text>
  </g>
  <g transform="translate(348 272)">
    <path d="M0 0C-28 0-50 22-50 50C-50 88 0 134 0 134C0 134 50 88 50 50C50 22 28 0 0 0Z" fill="#B10819" stroke="#FFFFFF" stroke-width="6"/>
    <circle cx="0" cy="50" r="18" fill="#FFFFFF"/>
  </g>
  <g transform="translate(393 346)">
    <rect width="96" height="42" rx="21" fill="#171714"/>
    <text x="48" y="27" fill="#FFFFFF" font-family="Arial, sans-serif" font-size="16" font-weight="700" text-anchor="middle">RIZZ</text>
  </g>
  <text x="32" y="608" fill="#171714" font-family="Arial, 'Noto Sans KR', sans-serif" font-size="14" font-weight="700">서울 성동구 연무장19길 6</text>
</svg>
